<svg width="347" height="22" xmlns="http://www.w3.org/2000/svg"><g fill-rule="nonzero" fill="none"><path d="M0 0h347v2H1v258H0V0zm330 22v174h16v2h-16v20h16v2h-16v20h16v2h-16v16h-1v-16h-15v16h-1v-16h-15v16h-1v-16H4v-2h325V22h1zm-37 224v8H5v-8h288zm49-218v162h-8V28h8z" fill="#FFF"/><path d="M347 2v258H1v-2h311v-16h1v16h15v-16h1v16h17v-18h-16v-2h16v-20h-16v-2h16V22H4v220H3V22H1v-2h345V2h1zm-52 242v12H3v-12h292zm-2 2H5v8h288v-8zm15 6v2h-2v-2h2zm12 0v2h-2v-2h2zm-14-2v2h-2v-2h2zm16 0v2h-2v-2h2zm-18-2v2h-2v-2h2zm20 0v2h-2v-2h2zm-18-2v2h-2v-2h2zm16 0v2h-2v-2h2zm-14-2v2h-2v-2h2zm12 0v2h-2v-2h2zm19-14v2h-2v-2h2zm-2-2v2h-2v-2h2zm4 0v2h-2v-2h2zm-6-2v2h-2v-2h2zm8 0v2h-2v-2h2zm-8-18v2h-2v-2h2zm8 0v2h-2v-2h2zm-6-2v2h-2v-2h2zm4 0v2h-2v-2h2zm-2-2v2h-2v-2h2zm3-14V28h-8v162h8z" fill="#000"/></g></svg>