<svg width="46" height="22" xmlns="http://www.w3.org/2000/svg">
  <g fill-rule="nonzero" fill="none">
    <path
      d="M23 0h23v2H23V0zm0 2h1v18h-1V2zm17 14V6h1v12H29v-2h11zM28 4h13v2H28V4zm5 2h2v6h-2V6zm-5 0h2v6h-2V6zm2 4h3v2h-3v-2zm-2 2h1v6h-1v-6z"
      fill="#000" />
    <path d="M45 2h1v20h-1V2zM23 20h22v2H23v-2zM35 6h5v10h-5V6zm-6 6h6v4h-6v-4z" fill="#FFF" />
    <g>
      <path d="M0 0h23v2H0V0zm0 2h1v18H0V2zm7 4h3v4H7V6z" fill="#FFF" />
      <path
        d="M17 16V6h1v12H6v-2h11zM5 4h13v2H5V4zm5 2h2v6h-2V6zM5 6h2v6H5V6zm2 4h3v2H7v-2zm-2 2h1v6H5v-6zM22 2h1v20h-1V2zM0 20h22v2H0v-2z"
        fill="#000" />
    </g>
  </g>
</svg>